<svg width="28" height="25" viewBox="0 0 28 25" fill="none" xmlns="http://www.w3.org/2000/svg">
<path d="M24.1005 24H3.90049C3.65443 23.9988 3.41721 23.9081 3.23317 23.7448C3.04913 23.5815 2.93087 23.3567 2.90049 23.1125L1.12549 7.1125C1.1097 6.97309 1.12343 6.83192 1.16577 6.69817C1.20812 6.56441 1.27813 6.44106 1.37127 6.33614C1.4644 6.23121 1.57858 6.14706 1.70636 6.08915C1.83415 6.03124 1.9727 6.00086 2.11299 6H25.888C26.0283 6.00086 26.1668 6.03124 26.2946 6.08915C26.4224 6.14706 26.5366 6.23121 26.6297 6.33614C26.7228 6.44106 26.7929 6.56441 26.8352 6.69817C26.8776 6.83192 26.8913 6.97309 26.8755 7.1125L25.1005 23.1125C25.0701 23.3567 24.9519 23.5815 24.7678 23.7448C24.5838 23.9081 24.3466 23.9988 24.1005 24V24Z" stroke="#464646" stroke-width="1.5" stroke-linecap="round" stroke-linejoin="round"/>
<path d="M9 6C9 4.67392 9.52678 3.40215 10.4645 2.46447C11.4021 1.52678 12.6739 1 14 1C15.3261 1 16.5979 1.52678 17.5355 2.46447C18.4732 3.40215 19 4.67392 19 6" stroke="#464646" stroke-width="1.5" stroke-linecap="round" stroke-linejoin="round"/>
</svg>
